# Blender 4.2.3 LTS
# www.blender.org
mtllib sandcell.mtl
o sandcell
v -1.000000 -0.333333 3.000000
v 1.000000 -0.333333 3.000000
v -1.000000 0.666667 -1.000000
v 1.000000 0.666667 -1.000000
v -1.000000 0.666667 1.000000
v 1.000000 0.666667 1.000000
v -3.000000 -0.333333 -1.000000
v -3.000000 -0.333333 1.000000
v -1.000000 -0.333333 -3.000000
v 1.000000 -0.333333 -3.000000
v 3.000000 -0.333333 -1.000000
v 3.000000 -0.333333 1.000000
vn -0.1503 0.8843 0.4421
vn 0.1503 0.8843 0.4421
vn -0.2182 0.9512 -0.2182
vn 0.2182 0.9512 -0.2182
vn -0.2182 0.9512 0.2182
vn 0.2182 0.9512 0.2182
vn -0.4421 0.8843 -0.1503
vn -0.4421 0.8843 0.1503
vn -0.1503 0.8843 -0.4421
vn 0.1503 0.8843 -0.4421
vn 0.4421 0.8843 -0.1503
vn 0.4421 0.8843 0.1503
vt 0.249709 0.998841
vt -0.000000 0.748551
vt 0.258226 0.490924
vt 0.507935 0.741214
vt 0.757645 0.492083
vt 0.998838 0.750869
vt 0.749129 1.000000
vt 0.507935 0.241793
vt 0.749129 0.001159
vt 0.998838 0.251449
vt -0.000000 0.249131
vt 0.249710 0.000000
s 1
usemtl Material.001
f 1/1/1 2/2/2 6/3/6 5/4/5
f 5/4/5 3/5/3 7/6/7 8/7/8
f 3/5/3 4/8/4 10/9/10 9/10/9
f 4/8/4 6/3/6 12/11/12 11/12/11
f 4/8/4 11/12/11 10/9/10
f 6/3/6 2/2/2 12/11/12
f 5/4/5 8/7/8 1/1/1
f 3/5/3 9/10/9 7/6/7
f 6/3/6 4/8/4 3/5/3 5/4/5
